<svg width="24" height="24" viewBox="0 0 24 24" fill="none" xmlns="http://www.w3.org/2000/svg">
<circle cx="12" cy="12" r="12" fill="#3D3D3D"/>
<path d="M16.3041 11.4858H6.40991C6.26872 11.4858 6.13332 11.5399 6.03348 11.6364C5.93365 11.7328 5.87756 11.8636 5.87756 12C5.87756 12.1364 5.93365 12.2671 6.03348 12.3636C6.13332 12.46 6.26872 12.5142 6.40991 12.5142H16.3041L12.4212 16.2639C12.3212 16.3604 12.265 16.4914 12.265 16.628C12.265 16.7645 12.3212 16.8955 12.4212 16.992C12.5211 17.0886 12.6567 17.1428 12.7981 17.1428C12.9394 17.1428 13.075 17.0886 13.175 16.992L17.9661 12.364C18.0156 12.3163 18.055 12.2595 18.0818 12.1971C18.1086 12.1346 18.1225 12.0676 18.1225 12C18.1225 11.9323 18.1086 11.8654 18.0818 11.8029C18.055 11.7404 18.0156 11.6837 17.9661 11.6359L13.175 7.00792C13.075 6.91136 12.9394 6.85712 12.7981 6.85712C12.6567 6.85712 12.5211 6.91136 12.4212 7.00792C12.3212 7.10448 12.265 7.23543 12.265 7.37199C12.265 7.50854 12.3212 7.6395 12.4212 7.73606L16.3041 11.4858Z" fill="white"/>
</svg>
